<svg width="24" height="24" viewBox="0 0 24 24" fill="none" xmlns="http://www.w3.org/2000/svg">
<circle cx="12" cy="12.0002" r="12" fill="url(#paint0_linear_1_20)"/>
<path d="M10.1195 17.876C10.559 17.876 10.9032 17.7003 11.1449 17.3414L18.0004 6.7652C18.1762 6.50153 18.2494 6.25983 18.2494 6.03278C18.2494 5.43219 17.81 5.00006 17.1947 5.00006C16.7699 5.00006 16.5136 5.14655 16.2572 5.5567L10.0902 15.3126L6.94083 11.3428C6.6918 11.0425 6.43546 10.9034 6.06924 10.9034C5.44669 10.9034 4.99991 11.3428 4.99991 11.9507C4.99991 12.2144 5.0878 12.4634 5.31485 12.7271L9.10147 17.378C9.38712 17.7222 9.70206 17.876 10.1195 17.876Z" fill="white"/>
<defs>
<linearGradient id="paint0_linear_1_20" x1="-12" y1="12.0002" x2="12" y2="36.0002" gradientUnits="userSpaceOnUse">
<stop stop-color="#FF00AA"/>
<stop offset="1" stop-color="#F54562"/>
</linearGradient>
</defs>
</svg>
