<svg width="24" height="24" viewBox="0 0 24 24" fill="none" xmlns="http://www.w3.org/2000/svg">
<g id="moon">
<path id="shape" fill-rule="evenodd" clip-rule="evenodd" d="M9.60156 8.35156C9.60156 12.375 12.1875 14.8672 16.3359 14.8672C17.2344 14.8672 18.1641 14.7031 18.7656 14.4531C18.9922 14.3594 19.1328 14.3359 19.2891 14.3359C19.6016 14.3359 19.9062 14.5859 19.9062 14.9766C19.9062 15.0938 19.875 15.2891 19.7734 15.5312C18.4922 18.4688 15.6953 20.2812 12.3047 20.2812C7.55469 20.2812 4.09375 16.8125 4.09375 12.0625C4.09375 8.75781 6.13281 5.70312 9.0625 4.51562C9.30469 4.42188 9.48438 4.39062 9.57812 4.39062C9.97656 4.39062 10.25 4.72656 10.25 5.05469C10.25 5.24219 10.2188 5.39062 10.0859 5.64844C9.79688 6.20312 9.60156 7.21875 9.60156 8.35156ZM8.53125 6.42188C6.71094 7.64062 5.59375 9.79688 5.59375 12.0156C5.59375 15.9297 8.44531 18.7891 12.3516 18.7891C14.6328 18.7891 16.7422 17.7266 17.8828 15.9688C17.3359 16.1641 16.7578 16.2422 16.0859 16.2422C11.1641 16.2422 8.20312 13.3516 8.20312 8.53125C8.20312 7.75781 8.32031 7.05469 8.53125 6.42188Z" fill="white"/>
</g>
</svg>
