<svg width="26" height="25" viewBox="0 0 26 25" fill="none" xmlns="http://www.w3.org/2000/svg">
<path fill-rule="evenodd" clip-rule="evenodd" d="M12.9941 24.7969C19.709 24.7969 25.2402 19.2539 25.2402 12.5391C25.2402 5.82422 19.6973 0.292969 12.9941 0.292969C6.2793 0.292969 0.748047 5.82422 0.748047 12.5391C0.748047 19.2539 6.2793 24.7969 12.9941 24.7969ZM7.97852 6.35147C7.16992 6.09366 6.47852 5.76553 5.91602 5.37881C7.06445 4.2421 8.49414 3.36319 10.0762 2.88272C9.23242 3.71475 8.51758 4.89835 7.97852 6.35147ZM15.9355 2.88272C16.7793 3.71475 17.4941 4.91006 18.0332 6.35147C18.8301 6.09366 19.5332 5.76553 20.084 5.39053C18.9355 4.2421 17.5176 3.37491 15.9355 2.88272ZM12.1445 7.01953C11.2773 6.98438 10.457 6.90234 9.69531 6.76172C10.3281 5.09766 11.1953 3.85547 12.1445 3.38672V7.01953ZM13.8613 3.38672V7.01953C14.7285 6.98438 15.5488 6.90234 16.2988 6.76172C15.6777 5.09766 14.8105 3.85547 13.8613 3.38672ZM6.95898 11.672H2.92773C3.0918 9.8204 3.75977 8.10947 4.80273 6.66806C5.49414 7.1954 6.4082 7.629 7.47461 7.96884C7.19336 9.10556 7.01758 10.3477 6.95898 11.672ZM19.041 11.6718H23.0723C22.9082 9.83194 22.2402 8.10928 21.209 6.6796C20.5176 7.19522 19.6035 7.62881 18.5371 7.96866C18.8066 9.10538 18.9941 10.3476 19.041 11.6718ZM17.2715 11.6718H13.8613V8.7421C14.8926 8.69522 15.8887 8.58975 16.8027 8.40225C17.0488 9.42178 17.2129 10.5233 17.2715 11.6718ZM8.72852 11.6718H12.1504V8.7421C11.1191 8.69522 10.123 8.58975 9.19727 8.40225C8.95117 9.42178 8.78711 10.5233 8.72852 11.6718ZM4.82617 18.4452C3.77148 16.9921 3.0918 15.2694 2.92773 13.3944H6.95898C7.01758 14.7421 7.19336 16.0077 7.47461 17.1562C6.41992 17.496 5.51758 17.9296 4.82617 18.4452ZM8.72852 13.3944C8.78711 14.5663 8.95117 15.6913 9.20898 16.7226C10.123 16.5468 11.1191 16.4296 12.1504 16.3944V13.3944H8.72852ZM16.791 16.7226C15.877 16.5468 14.8926 16.4296 13.8613 16.3944V13.3944H17.2715C17.2246 14.5663 17.0488 15.6913 16.791 16.7226ZM18.5195 17.1562C19.5859 17.496 20.4883 17.9296 21.1797 18.4452C22.2227 16.9921 22.9141 15.2694 23.0664 13.3944H19.0352C18.9883 14.7421 18.8125 16.0077 18.5195 17.1562ZM12.1387 21.7148C11.1895 21.2344 10.334 20.0039 9.71289 18.3633C10.4629 18.2344 11.2715 18.1523 12.1387 18.1172V21.7148ZM13.8613 18.1172V21.7148C14.7988 21.2344 15.666 20.0039 16.2871 18.3633C15.5254 18.2344 14.7168 18.1523 13.8613 18.1172ZM10.0586 22.1953C8.48828 21.7148 7.08203 20.8594 5.93359 19.7344C6.49609 19.3477 7.1875 19.0312 7.98438 18.7852C8.51172 20.2031 9.22656 21.375 10.0586 22.1953ZM18.0273 18.7852C17.4883 20.2031 16.7852 21.375 15.9531 22.1953C17.5117 21.7148 18.918 20.8594 20.0664 19.7344C19.5156 19.3477 18.8242 19.0312 18.0273 18.7852Z" fill="white"/>
</svg>
