<svg width="16" height="9" viewBox="0 0 16 9" fill="none" xmlns="http://www.w3.org/2000/svg">
<path d="M7.99609 8.75C8.33203 8.75 8.62109 8.61719 8.87891 8.35937L14.7305 2.35937C14.9336 2.15625 15.043 1.90625 15.043 1.60937C15.043 1 14.5586 0.515625 13.957 0.515625C13.6602 0.515625 13.3789 0.632812 13.1602 0.851562L8.00391 6.16406L2.83984 0.851562C2.62109 0.640625 2.34766 0.515625 2.04297 0.515625C1.44141 0.515625 0.957031 1 0.957031 1.60937C0.957031 1.90625 1.06641 2.15625 1.26953 2.36719L7.12109 8.35937C7.39453 8.625 7.66797 8.75 7.99609 8.75Z" fill="white"/>
</svg>
