<svg width="16" height="9" viewBox="0 0 16 9" fill="none" xmlns="http://www.w3.org/2000/svg">
<path d="M13.957 8.24225C14.5586 8.24225 15.043 7.75006 15.043 7.1485C15.043 6.84381 14.9336 6.59381 14.7305 6.39069L8.87891 0.398499C8.62109 0.132874 8.33203 6.10352e-05 7.99609 6.10352e-05C7.66797 6.10352e-05 7.38672 0.125061 7.12109 0.390686L1.26953 6.39069C1.06641 6.59381 0.957031 6.85162 0.957031 7.1485C0.957031 7.75006 1.44141 8.24225 2.04297 8.24225C2.34766 8.24225 2.62109 8.11725 2.83984 7.8985L8.00391 2.586L13.1602 7.8985C13.3711 8.12506 13.6602 8.24225 13.957 8.24225Z" fill="white"/>
</svg>
