<svg width="12" height="13" viewBox="0 0 12 13" fill="none" xmlns="http://www.w3.org/2000/svg">
<path fill-rule="evenodd" clip-rule="evenodd" d="M10.9774 1.64948C10.3427 1.02081 9.47595 0.880432 8.31628 0.880432H3.67151C2.52405 0.880432 1.65125 1.02081 1.02258 1.64948C0.393921 2.28424 0.259644 3.13873 0.259644 4.28619V8.90045C0.259644 10.0662 0.393921 10.9268 1.02258 11.5555C1.65735 12.1841 2.51794 12.3245 3.68372 12.3245H8.31628C9.47595 12.3245 10.3427 12.1841 10.9774 11.5555C11.6061 10.9207 11.7404 10.0662 11.7404 8.90045V4.2984C11.7404 3.13263 11.6061 2.27814 10.9774 1.64948ZM10.3792 4.13361V9.07135C10.3792 9.71222 10.2937 10.2371 9.98242 10.5606C9.66504 10.878 9.12183 10.9634 8.48706 10.9634H3.5127C2.87793 10.9634 2.33472 10.8719 2.01733 10.5606C1.69995 10.2371 1.62061 9.71222 1.62061 9.07135V4.14581C1.62061 3.49274 1.69995 2.96173 2.01733 2.64435C2.33472 2.32697 2.87793 2.24152 3.5249 2.24152H8.48706C9.12183 2.24152 9.66504 2.32697 9.98242 2.64435C10.2998 2.96173 10.3792 3.49274 10.3792 4.13361ZM8.43823 7.64313C8.43823 7.99713 8.23071 8.24127 7.90112 8.24127C7.56543 8.24127 7.35791 8.00934 7.35791 7.64313V6.7337L7.44336 5.90973L6.66211 6.77032L4.61743 8.815C4.48315 8.94318 4.33667 9.00421 4.15967 9.00421C3.81787 9.00421 3.56152 8.77228 3.56152 8.41217C3.56152 8.25348 3.63477 8.09479 3.75073 7.97882L5.80762 5.91583L6.68042 5.13458L5.89307 5.22614H4.92261C4.5625 5.22614 4.32446 5.01862 4.32446 4.68903C4.32446 4.35333 4.5625 4.14581 4.92261 4.14581H7.74854C8.17578 4.14581 8.43823 4.37164 8.43823 4.82941V7.64313Z" fill="white"/>
</svg>
