<svg width="30" height="30" viewBox="0 0 30 30" fill="none" xmlns="http://www.w3.org/2000/svg">
<path fill-rule="evenodd" clip-rule="evenodd" d="M14.9997 30C23.284 30 29.9997 23.2843 29.9997 15C29.9997 6.71573 23.284 0 14.9997 0C6.71544 0 -0.000289917 6.71573 -0.000289917 15C-0.000289917 23.2843 6.71544 30 14.9997 30ZM15.5372 11.0737C14.0783 11.6805 11.1624 12.9365 6.78958 14.8417C6.07951 15.124 5.70754 15.4003 5.67368 15.6704C5.61645 16.1269 6.18811 16.3066 6.96657 16.5514C7.07245 16.5847 7.18216 16.6192 7.29464 16.6558C8.06051 16.9047 9.09075 17.196 9.62633 17.2075C10.1121 17.218 10.6544 17.0178 11.253 16.6067C15.3387 13.8488 17.4477 12.4548 17.5801 12.4247C17.6735 12.4035 17.803 12.3769 17.8907 12.4548C17.9784 12.5328 17.9698 12.6804 17.9605 12.72C17.9038 12.9614 15.6599 15.0476 14.4986 16.1272C14.1366 16.4638 13.8798 16.7025 13.8273 16.7571C13.7097 16.8792 13.5899 16.9947 13.4747 17.1058C12.7632 17.7917 12.2296 18.306 13.5042 19.146C14.1168 19.5496 14.6069 19.8834 15.0959 20.2164C15.6299 20.5801 16.1626 20.9428 16.8517 21.3946C17.0273 21.5097 17.195 21.6292 17.3583 21.7457C17.9798 22.1887 18.5381 22.5868 19.2279 22.5233C19.6288 22.4864 20.0428 22.1095 20.2531 20.9855C20.75 18.3289 21.7267 12.5731 21.9525 10.2012C21.9723 9.99341 21.9474 9.72746 21.9274 9.61072C21.9074 9.49397 21.8657 9.32763 21.7139 9.2045C21.5342 9.05867 21.2568 9.02792 21.1327 9.0301C20.5685 9.04004 19.7029 9.34102 15.5372 11.0737Z" fill="white"/>
</svg>
