<svg width="30" height="24" viewBox="0 0 30 24" fill="none" xmlns="http://www.w3.org/2000/svg">
<path fill-rule="evenodd" clip-rule="evenodd" d="M25.3964 2.46552C23.4843 1.58817 21.4338 0.941777 19.29 0.57156C19.2509 0.564415 19.2119 0.582271 19.1918 0.617984C18.9281 1.087 18.636 1.69888 18.4315 2.17981C16.1256 1.83459 13.8316 1.83459 11.573 2.17981C11.3684 1.68819 11.0657 1.087 10.8008 0.617984C10.7807 0.583463 10.7417 0.565607 10.7027 0.57156C8.56 0.940594 6.50956 1.58699 4.59628 2.46552C4.57972 2.47266 4.56552 2.48458 4.5561 2.50004C0.666854 8.3105 -0.398573 13.9781 0.12409 19.5755C0.126455 19.6029 0.141827 19.6291 0.163112 19.6457C2.72913 21.5301 5.21475 22.6742 7.65421 23.4324C7.69325 23.4444 7.73462 23.4301 7.75947 23.3979C8.33652 22.6099 8.85092 21.779 9.29196 20.9052C9.31799 20.854 9.29314 20.7933 9.23994 20.773C8.42403 20.4635 7.64711 20.0862 6.89978 19.6576C6.84066 19.6231 6.83593 19.5386 6.89031 19.4981C7.04758 19.3802 7.20489 19.2576 7.35506 19.1338C7.38223 19.1112 7.42009 19.1064 7.45203 19.1207C12.3617 21.3623 17.677 21.3623 22.5288 19.1207C22.5607 19.1053 22.5986 19.11 22.627 19.1326C22.7772 19.2564 22.9344 19.3802 23.0929 19.4981C23.1473 19.5386 23.1437 19.6231 23.0846 19.6576C22.3373 20.0945 21.5604 20.4635 20.7433 20.7719C20.6901 20.7921 20.6664 20.854 20.6924 20.9052C21.1429 21.7777 21.6573 22.6087 22.2237 23.3967C22.2474 23.4301 22.2899 23.4444 22.329 23.4324C24.7803 22.6742 27.2659 21.5301 29.8319 19.6457C29.8544 19.6291 29.8686 19.6041 29.8709 19.5767C30.4965 13.1055 28.8232 7.48435 25.4354 2.50123C25.4271 2.48458 25.4129 2.47266 25.3964 2.46552ZM10.0243 16.1673C8.54611 16.1673 7.32815 14.8102 7.32815 13.1436C7.32815 11.477 8.52249 10.1199 10.0243 10.1199C11.5378 10.1199 12.744 11.4889 12.7203 13.1436C12.7203 14.8102 11.526 16.1673 10.0243 16.1673ZM17.2989 13.1436C17.2989 14.8102 18.5169 16.1673 19.995 16.1673C21.5086 16.1673 22.6911 14.8102 22.6911 13.1436C22.7147 11.4889 21.5086 10.1199 19.995 10.1199C18.4932 10.1199 17.2989 11.477 17.2989 13.1436Z" fill="white"/>
</svg>
