<svg width="30" height="26" viewBox="0 0 30 26" fill="none" xmlns="http://www.w3.org/2000/svg">
<path d="M9.42098 25.189C20.737 25.189 26.929 15.805 26.929 7.68099C26.929 7.41699 26.929 7.15299 26.917 6.88899C28.117 6.02499 29.161 4.93299 29.989 3.69699C28.885 4.18899 27.697 4.51299 26.449 4.66899C27.721 3.91299 28.693 2.70099 29.161 1.26099C27.973 1.96899 26.653 2.47299 25.249 2.74899C24.121 1.54899 22.525 0.804993 20.761 0.804993C17.365 0.804993 14.605 3.56499 14.605 6.96099C14.605 7.44099 14.665 7.90899 14.761 8.36499C9.64898 8.11299 5.11298 5.65299 2.07698 1.93299C1.54898 2.84499 1.24898 3.90099 1.24898 5.02899C1.24898 7.16499 2.34098 9.04899 3.98498 10.153C2.97698 10.117 2.02898 9.84099 1.20098 9.38499C1.20098 9.40899 1.20098 9.43299 1.20098 9.46899C1.20098 12.445 3.32498 14.941 6.13298 15.505C5.61698 15.649 5.07698 15.721 4.51298 15.721C4.11698 15.721 3.73298 15.685 3.36098 15.613C4.14098 18.061 6.42098 19.837 9.10898 19.885C6.99698 21.541 4.34498 22.525 1.46498 22.525C0.972976 22.525 0.480977 22.501 0.000976562 22.441C2.71298 24.169 5.95298 25.189 9.42098 25.189" fill="white"/>
</svg>
